<?xml version="1.0" encoding="utf-8"?>
<!-- Generator: Adobe Illustrator 19.0.0, SVG Export Plug-In . SVG Version: 6.00 Build 0)  -->
<svg version="1.1" id="Layer_1" xmlns="http://www.w3.org/2000/svg" xmlns:xlink="http://www.w3.org/1999/xlink" x="0px" y="0px"
	 viewBox="0 0 255.1 107.7" style="enable-background:new 0 0 255.1 107.7;" xml:space="preserve">
<style type="text/css">
	.st0{fill:#1C2B39;}
	.st1{fill:#ED1C24;}
	.st2{opacity:0.3;fill:#1C2B39;}
</style>
<g>
	<path class="st0" d="M193.7,41.5c0.1,0.4,0.3,0.2,0.5,0.2c0.3-0.1,1.3,0.3,1.5,0.6c0.2,0.4,0.5,0.8,0.8,1.1
		c0.4,0.5,0.8,0.7,1.4,0.7c1.2,0,2.2-0.6,3.2-1.5c0.7-0.7,1.1-1.5,1-2.6c0-0.4,0.2-1,0.4-1.1c0.5-0.3,1.2-0.6,1.8-0.4
		c0.6,0.2,1.2,0.4,1.7,0.5c0.6,0.1,1.1,0.1,1.7,0.1c1.7,0.1,3.4,0.2,5.1-0.4c0.8-0.3,1.6-0.6,2.5-0.9c0.1,0,0.3,0,0.5,0.1
		c-0.5,0.6-0.2,1.1-0.1,1.7c-0.4,0.1-0.8,0.3-0.6,0.8c0.1,0.4,0.3,0.9,0.5,1.3c0.1,0.1,0.4,0.2,0.5,0.1c0.2-0.1,0.3-0.3,0.4-0.5
		c0.1-0.3,0.2-0.7,0.3-1c0.6,0.7,0.8,0.9,1.2,0.6c0.5-0.5,0.2-1,0-1.5c0.4-0.1,0.7-0.3,0.6-0.8c-0.1-0.4-0.3-0.9-0.5-1.3
		c-0.1-0.1-0.4-0.2-0.6-0.1c-0.2,0.1-0.3,0.3-0.4,0.5c-0.1,0.2,0,0.4,0,0.7c-0.2-0.2-0.3-0.3-0.3-0.4c-0.3-0.3-0.2-0.9,0.1-1.2
		c0.3-0.3,0.6-0.7,0.9-1c0.2-0.2,0.5-0.4,0.8-0.6c0,0,0.1,0,0.2,0c0,0,0.1,0,0.1,0c0.4-0.2,0.8-0.5,1.3-0.8c0.1,0.7,0.2,1.2,0.3,1.8
		c0.1,0.4,0.2,0.8-0.3,1c0,0,0,0.1,0,0.2c0.4-0.3,0.8-0.5,1.2-0.8c0.4-0.3,0.7-0.7,1-1c0.1,0.2,0.3,0.5,0.4,0.7c0,0,0,0.1-0.1,0.1
		c-0.4-0.4-0.7-0.2-0.9,0.1c-0.1,0.3-0.1,0.7,0,1c0,0.2,0.2,0.5,0.4,0.7c0.2,0.3,0.4,0.3,0.6,0.2c0.3-0.1,0.4-0.3,0.4-0.6
		c0-0.2,0.1-0.3,0.1-0.6c0.2,0.2,0.3,0.3,0.4,0.4c0.3,0.2,0.8,0.1,0.9-0.3c0.1-0.6-0.1-1.1-0.4-1.5c-0.2-0.4-0.5-0.4-0.9-0.2
		c-0.1-0.3-0.2-0.6-0.2-0.8c0.7,0,1.4,0.1,2.1-0.1c0.7-0.2,1.3-0.7,1.9-1.1c0,0,0-0.1,0-0.1c-1.4,0.4-1.7-1.1-2.4-1.9
		c0.4-0.3,0.8-0.5,1.2-0.7c0.1-0.1,0.2-0.1,0.3-0.2c0.2-0.1,0.5-0.2,0.7-0.3c0.4-0.3,0.8-0.7,1.2-1.1c0.2,0.5,0.3,0.9,0.5,1.4
		c-0.2,0.6-0.5,1.3-0.1,2.1c-0.6,0.3-0.7,0.5-0.6,1c0.1,0.4,0.3,0.8,0.5,1.1c0.2,0.4,0.8,0.2,1-0.2c0.1-0.4,0.2-0.7,0.3-1.2
		c0.4,0.4,0.6,1,1.2,0.6c0.6-0.5,0.1-1,0.1-1.4c0.2-0.3,0.5-0.4,0.6-0.7c0.2-0.5-0.2-1.4-0.6-1.6c-0.2-0.1-0.4-0.1-0.5,0
		c-0.5,0.2-0.4,0.7-0.4,1.1c-0.3-0.5-0.5-1-0.8-1.6c0.1,0,0.3-0.1,0.6-0.1c-0.3-0.6-0.3-0.6,0-1.1c0-0.1,0-0.2,0-0.3
		c-0.2-0.3-0.2-0.6,0-0.9c0.2-0.3,0.2-0.7,0.4-0.8c0.7-0.6,1.5-1.1,2.3-1.6c0.1,0.2,0.2,0.3,0.3,0.5c0.2-0.4,0.4-0.8,0.6-1.1
		c0.3-0.5,0.7-0.7,1.1-0.3c0.1,0.1,0.2,0.4,0.3,0.6c0.3,0.9,1,1.5,1.9,1.5c0.9,0,1.7-0.2,2.4-0.8c0.5-0.5,1.1-0.9,1.4-1.7
		c0.4-1.2,0.1-2.8-1.3-3.3c-0.2-0.5-0.3-0.9-0.5-1.3c0.1-0.1,0.2-0.2,0.2-0.3c0.2,0.5,0.4,1,0.6,1.4c0.1,0,0.2,0,0.2,0
		c0.1-0.5,0.3-1,0.4-1.6c0.1-0.3,0.1-0.8,0.3-1c0.9-1,1-1,2-0.3c0.1,0,0.2,0.1,0.2,0.1c0.1,0.1,0.2,0.3,0.3,0.4
		c0.2,0.7,0.5,1.2,1.1,1.5c1,0.5,1.9,0.3,2.8-0.2c0.1-0.1,0.2-0.1,0.3-0.1c0.1-0.1,0.2-0.3,0.4-0.4c0.2-0.2,0.4-0.4,0.6-0.5
		c0.7-0.7,1-1.8,0.6-2.8c-0.4-1.1-1.1-1.7-2.1-1.6c-0.4,0-0.8,0.2-1.2,0.3c-0.2,0-0.4,0.1-0.5,0.1c2.6-2.5,5.1-5,7.7-7.6
		c-1.1-0.8-1-2.1-1.5-3.1c-0.3,0-0.4,0.2-0.4,0.5c0,0.7,0.1,1.5,0.1,2.2c0,0.2-0.1,0.5-0.2,0.6c-0.8,0.8-1.5,1.5-2.3,2.2
		c-2.5,2.4-5.1,4.8-7.9,6.9c-0.4,0.3-0.7,0.5-1.1,0.8c-0.8-1.9-2-3-3.8-3.1c-1-0.1-1.9,0.2-2.8,0.7c-0.2,0.1-0.4,0-0.5,0.1
		c-0.1,0.1-0.2,0.4-0.3,0.4c-0.3,0.2-0.7,0.3-1,0.5c-0.2,0.1-0.5,0.3-0.7,0.5c-0.2,0.2-0.3,0.4-0.5,0.6c-1.3,0.9-2.6,1.8-3.9,2.7
		c-1.7,1.1-3.3,2.2-5,3.4c-0.9,0.6-1.8,1.3-2.7,2c-0.1,0.1-0.2,0.1-0.3,0.1c-0.7-0.1-1.5,0.4-1.7,1.1c0,0.1-0.1,0.2-0.2,0.3
		c-0.3,0.2-0.6,0.5-1,0.7c-0.1-0.1-0.2-0.2-0.4-0.3c0.1,0.2,0.2,0.3,0.2,0.5c-1.6,1.1-3.1,2.3-4.7,3.4c-0.1,0.1-0.2,0-0.3,0
		c-0.1,0.1-0.1,0.3-0.2,0.4c-0.5,0.4-1,0.7-1.5,1.1c-0.1,0.1-0.2,0.1-0.4,0.1c-1-0.1-1.9-0.6-2.7-1.4c-1.5-1.5-2.9-3-4.4-4.5
		c-1.2-1.2-2.3-2.4-3.5-3.6c-0.1-0.1-0.4-0.2-0.5-0.2c-0.5,0.3-0.9,0.6-1.4,0.9c0.9,1.5,1.7,2.9,2.6,4.3c1.7,2.7,3.1,5.7,5,8.3
		c-0.2,0.4-0.6,0.7-1.1,0.9c-1.2,0.4-2.4,0.9-3.6,1.4c-3.2,1.2-6.4,2.4-9.7,3.5c-3.6,1.2-7.2,2.3-10.8,3.4c-0.2,0.1-0.5,0.1-0.7,0
		c-0.9-0.3-1.8-0.6-2.7-0.9c-0.2-0.1-0.3,0-0.5,0c0,0.1,0,0.1,0,0.2c0.8,0.5,1.5,1,2.3,1.4c0.1,0,0.1,0.1,0.2,0.1
		c0.8-0.2,1.5-0.4,2.3-0.4c0.6,0,1.2-0.3,1.8-0.5c2.6-0.7,5.1-1.4,7.7-2.1c0.9-0.2,1.7-0.5,2.6-0.7c0,0,0,0.1,0,0.1
		c-1.3,0.6-2.5,1.1-3.8,1.7c0,0,0,0.1,0,0.1c1.6-0.6,3.2-1.2,4.8-1.8c0.4-0.1,0.8-0.5,1.1-0.3C193.2,41.9,193.4,41.6,193.7,41.5"/>
	<polygon class="st1" points="99.8,102.6 2.6,102.6 10.6,89.1 105.1,89.1 	"/>
	<polygon class="st1" points="213.2,102.4 203.8,102.4 208.3,89.1 213.2,89.1 	"/>
	<path class="st0" d="M17.6,85.7h-5.7l16.2-25.6h5.7l5.5,25.6h-6l-1-6.1H21.1L17.6,85.7z M23.8,75h7.7l-1.8-9.8L23.8,75z"/>
	<polygon class="st0" points="70.7,60.1 54.7,85.7 49.1,85.7 43.4,60.1 49.5,60.1 53.1,79.1 65,60.1 	"/>
	<polygon class="st0" points="74.1,60.1 79.8,60.1 74.4,85.7 68.7,85.7 	"/>
	<path class="st0" d="M85.7,85.7H80l16.2-25.6h5.7l5.5,25.6h-6l-1-6.1H89.2L85.7,85.7z M91.9,75h7.7l-1.8-9.8L91.9,75z"/>
	<polygon class="st0" points="121,85.7 115.4,85.7 119.9,64.6 111.7,64.6 112.7,60.2 134.7,60.2 133.8,64.6 125.5,64.6 	"/>
	<path class="st0" d="M149.6,59.6c7.1,0,10.6,2.9,10.6,8.8c0,1.4-0.2,2.9-0.5,4.5c-1.9,8.9-7.1,13.3-15.6,13.3
		c-7,0-10.5-2.9-10.5-8.8c0-1.4,0.2-2.9,0.5-4.6C135.9,64,141.1,59.6,149.6,59.6 M139.9,72.8c-0.3,1.3-0.4,2.4-0.4,3.5
		c0,3.7,1.8,5.6,5.4,5.6c4.7,0,7.6-3,8.9-8.9c0.3-1.4,0.4-2.5,0.4-3.5c0-3.6-1.8-5.4-5.5-5.4C144.1,64,141.2,67,139.9,72.8"/>
	<path class="st0" d="M167,85.7h-5.4l5.4-25.6h13.2c5.1,0,7.6,1.8,7.6,5.3c0,0.7-0.1,1.5-0.3,2.4c-0.8,4-3,6.4-6.6,7.2l4,10.7h-6
		l-3.6-10h-6.3L167,85.7z M178,64.7h-6.6l-1.4,6.5h6.6c1.8,0,3.1-0.2,3.9-0.7c0.8-0.5,1.3-1.3,1.6-2.6c0.1-0.6,0.2-1,0.2-1.2
		C182.3,65.3,180.9,64.7,178,64.7"/>
	<path class="st0" d="M201.3,60.1h14.1l-1,4.6h-13.3c-2.8,0-4.4,1.1-4.9,3.3c0,0.2-0.1,0.5-0.1,0.7c0,1.4,1,2.1,2.9,2.1h7.1
		c2.5,0,4.3,0.4,5.4,1.2c1.1,0.8,1.6,1.9,1.6,3.5c0,0.7-0.1,1.6-0.4,2.5c-0.6,2.6-1.7,4.4-3.2,5.6c-1.7,1.4-4.2,2-7.4,2h-14.3l1-4.6
		h13.5c1.6,0,2.8-0.3,3.6-0.9c0.6-0.5,1-1.3,1.3-2.5c0.1-0.3,0.1-0.5,0.1-0.7c0-1.2-1.1-1.7-3.3-1.7h-6.3c-4.8,0-7.3-1.7-7.3-5.1
		c0-0.7,0.1-1.5,0.3-2.3c0.6-2.5,1.7-4.4,3.2-5.7C195.6,60.8,198,60.1,201.3,60.1"/>
	<path class="st2" d="M28.9,57.2c0,0,97,8.6,184.3-18.5c0,0-94.2,26.9-179.1,11.3L28.9,57.2z"/>
	<path class="st0" d="M193.7,41.5c-0.3,0.1-0.6,0.4-1,0.1c-0.3-0.1-0.7,0.2-1.1,0.3c-1.6,0.6-3.2,1.2-4.8,1.8c0,0,0-0.1,0-0.1
		c1.3-0.6,2.5-1.1,3.8-1.7c0,0,0-0.1,0-0.1c-0.9,0.2-1.7,0.5-2.6,0.7c-2.6,0.7-5.1,1.4-7.7,2.1c-0.6,0.2-1.2,0.5-1.8,0.5
		c-0.8,0-1.5,0.2-2.3,0.4c-0.1,0-0.2,0-0.2-0.1c-0.8-0.5-1.5-1-2.3-1.4c0-0.1,0-0.1,0-0.2c0.2,0,0.3,0,0.5,0
		c0.9,0.3,1.8,0.6,2.7,0.9c0.2,0.1,0.5,0.1,0.7,0c3.6-1.1,7.2-2.2,10.8-3.4c3.3-1.1,6.5-2.3,9.7-3.5c1.2-0.4,2.4-0.9,3.6-1.4
		c0.5-0.2,0.8-0.6,1.1-0.9c-1.9-2.6-3.4-5.5-5-8.3c-0.9-1.4-1.7-2.8-2.6-4.3c0.5-0.3,1-0.7,1.4-1c0.1-0.1,0.4,0,0.5,0.2
		c1.2,1.2,2.3,2.4,3.5,3.6c1.5,1.5,2.9,3,4.4,4.5c0.8,0.8,1.7,1.2,2.7,1.4c0.1,0,0.3,0,0.4-0.1c0.5-0.4,1-0.7,1.5-1.1
		c0.1-0.1,0.1-0.3,0.2-0.4c0,0,0.2,0.1,0.3,0c1.6-1.1,3.1-2.2,4.7-3.4c-0.1-0.1-0.1-0.2-0.2-0.5c0.2,0.2,0.3,0.2,0.4,0.3
		c0.3-0.2,0.7-0.5,1-0.7c0.1-0.1,0.2-0.2,0.2-0.3c0.2-0.8,1-1.3,1.7-1.1c0.1,0,0.2,0,0.3-0.1c0.9-0.7,1.8-1.3,2.7-2
		c1.6-1.1,3.3-2.2,5-3.4c1.3-0.9,2.6-1.8,3.9-2.7c0.2-0.1,0.3-0.4,0.5-0.6c0.2-0.2,0.4-0.4,0.7-0.5c0.3-0.2,0.7-0.3,1-0.5
		c0.1-0.1,0.2-0.3,0.3-0.4c0.1,0,0.4,0,0.5-0.1c0.9-0.5,1.8-0.7,2.8-0.7c1.8,0.1,3,1.2,3.8,3.1c0.3-0.2,0.7-0.5,1.1-0.8
		c2.8-2.1,5.3-4.5,7.9-6.9c0.8-0.7,1.5-1.5,2.3-2.2c0.1-0.1,0.2-0.4,0.2-0.6c0-0.7,0-1.5-0.1-2.2c0-0.3,0.1-0.5,0.4-0.5
		c0.5,1,0.4,2.4,1.5,3.1c-2.6,2.5-5.1,5-7.7,7.6c0.1,0,0.3-0.1,0.5-0.1c0.4-0.1,0.8-0.3,1.2-0.3c1-0.1,1.8,0.6,2.1,1.6
		c0.3,1,0.1,2.1-0.6,2.8c-0.2,0.2-0.4,0.4-0.6,0.5c-0.1,0.1-0.2,0.3-0.4,0.4c-0.1,0-0.2,0-0.3,0.1c-0.9,0.5-1.8,0.8-2.8,0.2
		c-0.6-0.3-0.9-0.8-1.1-1.5c0-0.2-0.2-0.3-0.3-0.4c-0.1-0.1-0.2-0.1-0.2-0.1c-1.1-0.6-1.2-0.6-2,0.3c-0.2,0.2-0.2,0.6-0.3,1
		c-0.1,0.5-0.3,1-0.4,1.6c-0.1,0-0.2,0-0.2,0c-0.2-0.5-0.4-0.9-0.6-1.4c-0.1,0.1-0.2,0.2-0.2,0.3c0.2,0.4,0.3,0.8,0.5,1.3
		c1.3,0.5,1.7,2.1,1.3,3.3c-0.3,0.8-0.9,1.2-1.4,1.7c-0.7,0.7-1.5,0.8-2.4,0.8c-0.8,0-1.6-0.6-1.9-1.5c-0.1-0.2-0.1-0.5-0.3-0.6
		c-0.4-0.4-0.8-0.3-1.1,0.3c-0.2,0.3-0.4,0.7-0.6,1.1c-0.1-0.2-0.2-0.4-0.3-0.5c-0.8,0.5-1.5,1-2.3,1.6c-0.2,0.2-0.2,0.6-0.4,0.8
		c-0.2,0.3-0.2,0.6,0,0.9c0,0.1,0,0.2,0,0.3c-0.2,0.5-0.2,0.5,0,1.1c-0.2,0-0.4,0.1-0.6,0.1c0.3,0.5,0.5,1,0.8,1.6
		c0-0.4-0.1-0.9,0.4-1.1c0.2-0.1,0.4,0,0.5,0c0.4,0.2,0.8,1.2,0.6,1.6c-0.1,0.2-0.3,0.4-0.6,0.7c0,0.4,0.6,0.9-0.1,1.4
		c-0.5,0.4-0.8-0.2-1.2-0.6c-0.1,0.4-0.2,0.8-0.3,1.2c-0.1,0.5-0.7,0.6-1,0.2c-0.2-0.3-0.4-0.7-0.5-1.1c-0.1-0.5,0-0.7,0.6-1
		c-0.4-0.7-0.1-1.4,0.1-2.1c-0.2-0.5-0.3-0.9-0.5-1.4c-0.4,0.4-0.8,0.8-1.2,1.1c-0.2,0.2-0.5,0.2-0.7,0.3c-0.1,0-0.2,0.1-0.3,0.2
		c-0.4,0.2-0.8,0.4-1.2,0.7c0.7,0.8,0.9,2.3,2.4,1.9c0,0,0,0.1,0,0.1c-0.6,0.4-1.3,0.9-1.9,1.1c-0.6,0.2-1.4,0.1-2.1,0.1
		c0.1,0.2,0.1,0.5,0.2,0.8c0.4-0.2,0.7-0.2,0.9,0.2c0.3,0.5,0.5,0.9,0.4,1.5c-0.1,0.4-0.6,0.5-0.9,0.3c-0.1-0.1-0.2-0.2-0.4-0.4
		c-0.1,0.2-0.1,0.4-0.1,0.6c0,0.4-0.2,0.5-0.4,0.6c-0.3,0.1-0.5,0.1-0.6-0.2c-0.1-0.2-0.3-0.4-0.4-0.7c-0.1-0.3-0.1-0.8,0-1
		c0.2-0.3,0.5-0.5,0.9-0.1c0,0,0-0.1,0.1-0.1c-0.1-0.2-0.3-0.5-0.4-0.7c-0.3,0.3-0.7,0.7-1,1c-0.4,0.3-0.8,0.5-1.2,0.8
		c0-0.2,0-0.2,0-0.2c0.5-0.2,0.4-0.6,0.3-1c-0.1-0.5-0.2-1.1-0.3-1.8c-0.4,0.3-0.9,0.5-1.3,0.8c0,0-0.1,0-0.1,0
		c-0.1,0-0.2-0.1-0.2,0c-0.3,0.2-0.6,0.4-0.8,0.6c-0.3,0.3-0.6,0.7-0.9,1c-0.3,0.3-0.3,0.9-0.1,1.2c0.1,0.1,0.2,0.2,0.3,0.4
		c0-0.4-0.1-0.6,0-0.7c0.1-0.2,0.2-0.5,0.4-0.5c0.2-0.1,0.5,0,0.6,0.1c0.2,0.4,0.4,0.8,0.5,1.3c0.1,0.5-0.3,0.7-0.6,0.8
		c0.1,0.5,0.5,1.1,0,1.5c-0.4,0.3-0.6,0.2-1.2-0.6c-0.1,0.4-0.2,0.7-0.3,1c-0.1,0.2-0.3,0.4-0.4,0.5c-0.1,0.1-0.4,0-0.5-0.1
		c-0.2-0.4-0.4-0.8-0.5-1.3c-0.1-0.5,0.3-0.7,0.6-0.8c-0.1-0.6-0.4-1.1,0.1-1.7c-0.2,0-0.4-0.1-0.5-0.1c-0.8,0.3-1.6,0.6-2.5,0.9
		c-1.7,0.6-3.4,0.6-5.1,0.4c-0.6,0-1.2,0-1.7-0.1c-0.6-0.1-1.2-0.3-1.7-0.5c-0.7-0.2-1.3,0-1.8,0.4c-0.3,0.2-0.4,0.8-0.4,1.1
		c0.1,1.1-0.3,1.9-1,2.6c-0.9,0.8-1.9,1.5-3.2,1.5c-0.6,0-1-0.3-1.4-0.7c-0.3-0.3-0.5-0.7-0.8-1.1c-0.2-0.3-1.2-0.7-1.5-0.6
		C194,41.7,193.8,41.9,193.7,41.5"/>
	<g>
		<path class="st0" d="M105,98.9c0.6,0.3,1.4,0.6,2.3,0.6c0.8,0,1.5-0.4,1.5-1.1c0-0.5-0.4-0.9-1.3-1.4c-1-0.6-2-1.3-2-2.6
			c0-2,1.7-3.2,3.8-3.2c1.2,0,1.9,0.3,2.3,0.5l-0.7,1.7c-0.3-0.2-1-0.4-1.8-0.4c-1,0-1.5,0.5-1.5,1c0,0.6,0.6,0.9,1.4,1.4
			c1.2,0.6,1.9,1.4,1.9,2.6c0,2.2-1.8,3.3-4,3.3c-1.4,0-2.3-0.3-2.8-0.7L105,98.9z"/>
		<path class="st0" d="M117.9,100.7c-0.8,0.4-1.8,0.5-2.6,0.5c-2,0-3.1-1.1-3.1-3c0-2.2,1.6-4.4,4.1-4.4c1.4,0,2.5,0.8,2.5,2.1
			c0,1.8-1.7,2.5-4.6,2.4c0,0.2,0.1,0.5,0.2,0.7c0.3,0.4,0.8,0.5,1.4,0.5c0.8,0,1.4-0.2,2-0.4L117.9,100.7z M116,95.4
			c-1,0-1.5,0.8-1.7,1.5c1.6,0,2.4-0.2,2.4-0.9C116.8,95.6,116.5,95.4,116,95.4z"/>
		<path class="st0" d="M119.2,101.1l0.8-4.2c0.2-1.1,0.3-2.3,0.4-2.9h1.8c0,0.5-0.1,1-0.1,1.4h0c0.5-0.9,1.3-1.6,2.3-1.6
			c0.1,0,0.3,0,0.4,0l-0.4,2c-0.1,0-0.2,0-0.3,0c-1.3,0-2,1.2-2.2,2.6l-0.5,2.6H119.2z"/>
		<path class="st0" d="M127.5,94l0.3,3.1c0.1,0.9,0.2,1.4,0.2,1.9h0.1c0.2-0.5,0.4-1,0.8-1.9l1.4-3.1h2.3l-3.9,7.1h-2.1l-1.2-7.1
			H127.5z"/>
		<path class="st0" d="M132.3,101.1l1.3-7.1h2.1l-1.3,7.1H132.3z M133.9,92.1c0-0.7,0.6-1.2,1.2-1.2c0.6,0,1,0.4,1,1
			c0,0.7-0.6,1.2-1.2,1.2C134.3,93.2,133.9,92.8,133.9,92.1z"/>
		<path class="st0" d="M141.3,100.9c-0.4,0.2-1.2,0.4-2,0.4c-1.7,0-3-1.1-3-2.9c0-2.5,1.9-4.5,4.6-4.5c0.6,0,1.1,0.1,1.4,0.2
			l-0.5,1.6c-0.2-0.1-0.5-0.2-1-0.2c-1.5,0-2.4,1.3-2.4,2.6c0,1,0.6,1.5,1.4,1.5c0.6,0,1-0.1,1.4-0.3L141.3,100.9z"/>
		<path class="st0" d="M148.1,100.7c-0.8,0.4-1.8,0.5-2.6,0.5c-2,0-3.1-1.1-3.1-3c0-2.2,1.6-4.4,4.1-4.4c1.4,0,2.5,0.8,2.5,2.1
			c0,1.8-1.7,2.5-4.6,2.4c0,0.2,0.1,0.5,0.2,0.7c0.3,0.4,0.8,0.5,1.4,0.5c0.8,0,1.4-0.2,2-0.4L148.1,100.7z M146.3,95.4
			c-1,0-1.5,0.8-1.7,1.5c1.6,0,2.4-0.2,2.4-0.9C147.1,95.6,146.8,95.4,146.3,95.4z"/>
		<path class="st0" d="M157.8,90.8l-1.4,7.5c-0.2,0.9-0.3,1.9-0.3,2.7h-1.9l0.1-1.1h0c-0.6,0.9-1.5,1.3-2.3,1.3
			c-1.2,0-2.2-1-2.2-2.7c0-2.5,1.8-4.7,4.5-4.7c0.3,0,0.7,0,1,0.2l0.6-3.2H157.8z M154.8,95.7c-0.2-0.1-0.5-0.2-0.8-0.2
			c-1.2,0-2.1,1.4-2.1,2.8c0,0.9,0.4,1.3,1,1.3c0.6,0,1.3-0.6,1.6-2L154.8,95.7z"/>
		<path class="st0" d="M170.1,95.3c0,1.8-0.6,3.5-1.7,4.6c-0.9,0.9-2.1,1.4-3.6,1.4c-2.5,0-3.9-1.8-3.9-4.1c0-1.8,0.7-3.5,1.8-4.6
			c0.9-0.9,2.2-1.4,3.6-1.4C168.7,91.2,170.1,92.9,170.1,95.3z M164.2,93.7c-0.8,0.8-1.2,2.3-1.2,3.5c0,1.4,0.6,2.4,2,2.4
			c0.6,0,1.2-0.3,1.6-0.7c0.8-0.8,1.2-2.4,1.2-3.5c0-1.2-0.4-2.4-2-2.4C165.2,92.9,164.7,93.2,164.2,93.7z"/>
		<path class="st0" d="M182,92.7c-0.3-0.1-0.9-0.3-1.5-0.3c-1.2,0-1.6,0.7-1.7,1.4l0,0.3h4.1l-1.3,7.1h-2.1l1-5.5h-2l-1,5.5h-2.1
			l1-5.5H174l-1,5.5h-2.1l1-5.5H171l0.3-1.6h0.9l0.1-0.3c0.2-0.8,0.5-1.5,1-2.1c0.5-0.5,1.2-0.8,2.2-0.8c0.5,0,1,0.2,1.2,0.3
			l-0.7,1.5c-0.1-0.1-0.3-0.1-0.6-0.1c-0.3,0-0.5,0.1-0.6,0.2c-0.2,0.2-0.4,0.6-0.5,1l-0.1,0.2h2.3l0.1-0.3c0.4-2,1.8-3.1,3.9-3.1
			c0.8,0,1.6,0.2,2,0.4L182,92.7z"/>
		<path class="st0" d="M188.4,100.9c-0.4,0.2-1.2,0.4-2,0.4c-1.7,0-3-1.1-3-2.9c0-2.5,1.9-4.5,4.6-4.5c0.6,0,1.1,0.1,1.4,0.2
			l-0.5,1.6c-0.2-0.1-0.5-0.2-1-0.2c-1.5,0-2.4,1.3-2.4,2.6c0,1,0.6,1.5,1.4,1.5c0.6,0,1-0.1,1.4-0.3L188.4,100.9z"/>
		<path class="st0" d="M195.2,100.7c-0.8,0.4-1.8,0.5-2.6,0.5c-2,0-3.1-1.1-3.1-3c0-2.2,1.6-4.4,4.1-4.4c1.4,0,2.5,0.8,2.5,2.1
			c0,1.8-1.7,2.5-4.6,2.4c0,0.2,0.1,0.5,0.2,0.7c0.3,0.4,0.8,0.5,1.4,0.5c0.8,0,1.4-0.2,2-0.4L195.2,100.7z M193.4,95.4
			c-1,0-1.5,0.8-1.7,1.5c1.6,0,2.4-0.2,2.4-0.9C194.2,95.6,193.9,95.4,193.4,95.4z"/>
		<path class="st0" d="M196.8,99.2c0.4,0.2,1.2,0.5,1.8,0.5c0.6,0,0.9-0.3,0.9-0.6s-0.2-0.6-0.9-0.9c-0.8-0.4-1.5-1-1.5-1.9
			c0-1.5,1.3-2.4,3.1-2.4c0.8,0,1.5,0.2,1.8,0.4l-0.5,1.5c-0.3-0.1-0.8-0.3-1.4-0.3c-0.5,0-0.9,0.2-0.9,0.6c0,0.3,0.3,0.5,0.9,0.8
			c0.8,0.4,1.6,1,1.6,1.9c0,1.6-1.4,2.5-3.2,2.5c-0.9,0-1.7-0.2-2.2-0.5L196.8,99.2z"/>
	</g>
</g>
</svg>
